<svg t="1726415941385" class="icon" viewBox="0 0 1024 1024" version="1.1" xmlns="http://www.w3.org/2000/svg"
    p-id="10220" width="200" height="200">
    <path d="M383.157141 945.422867a134.197928 77.860494 0 1 0 268.395856 0 134.197928 77.860494 0 1 0-268.395856 0Z"
        fill="#8E8E8E" p-id="10221"></path>
    <path
        d="M181.854565 311.430606C172.417618 434.78173 235.315435 536.587055 327.229021 600.621853c38.009292 26.480299 66.4452 60.964949 89.480445 100.099853 32.665479 55.541547 52.437587 120.827025 55.905381 189.080025v22.011962a44.728853 44.728853 0 1 0 89.469075 0v-22.000592c0-72.346134 15.895002-132.697112 55.916751-189.080026 24.274555-34.211774 58.167974-66.854513 100.656973-100.111222C798.792103 538.963346 852.855574 442.77471 852.855574 333.681334 852.855574 144.419392 702.671686 0 506.167171 0S195.998615 145.419935 181.854565 311.430606z"
        fill="#FFFFFF" p-id="10222"></path>
    <path
        d="M204.207621 311.430606c-8.982154 116.540605 57.644963 217.561412 145.397196 278.071568 35.883137 24.752088 63.32987 63.35261 89.469075 111.219532 37.770526 69.196695 55.916751 151.707443 55.916751 189.080025v22.13703a22.364426 22.364426 0 0 0 44.728853 0V889.801731c0-62.443025 17.475406-130.514108 55.91675-189.080025 29.174946-44.455977 62.795489-83.192937 100.656974-111.230902 76.484746-58.270302 134.197928-152.730726 134.197927-255.82084 0-178.847192-141.304062-311.430606-324.323976-311.430606-183.008544 0-288.45221 132.299169-301.94818 289.179878z"
        fill="#FF6244" p-id="10223"></path>
    <path
        d="M479.004683 409.006359v21.102377c-26.753175 9.83489-57.281129 17.930198-91.299616 24.297295l-2.910672-21.693607c35.758069-5.775866 67.161498-13.871174 94.210288-23.706065z m-46.525284-208.795285l19.476494 7.515448c-14.246378 36.440257-28.777002 65.353697-43.898857 87.33155 12.506797-1.443967 25.002223-3.467794 37.509021-5.775866 5.809976-11.858717 11.915566-24.58154 18.305402-37.884224l18.328142 6.651342c-25.877699 52.630874-47.105144 89.935238-63.96658 111.91309a402.298168 402.298168 0 0 0 49.140341-15.622126v18.805674c-25.582084 9.539275-50.311432 16.190617-73.562704 19.66978l-5.52573-19.101289c3.490533-1.443967 6.685451-3.467794 9.300509-5.775866 10.755845-11.858717 23.558257-31.812743 38.668741-60.146322-15.98596 2.887933-31.98329 5.775866-47.98062 8.095308l-4.9345-19.101289c3.194918-1.136982 6.105591-3.752039 8.436403-7.504078 15.690345-26.036877 29.072617-55.530177 40.703938-89.071132z m106.125855 155.58455c29.083987 8.959414 55.825792 19.954026 79.679664 32.676849l-10.4716 15.906371a430.324763 430.324763 0 0 0-79.963909-32.676848l10.755845-15.917741z m-35.178208 49.163081c46.525283 12.142963 88.968803 26.605367 127.353299 43.955705l-11.05146 17.350338a759.674197 759.674197 0 0 0-127.93316-43.955705l11.631321-17.350338z m27.62865-204.747631l21.216075 2.603688c-2.615057 8.959414-5.52573 17.634583-8.720648 25.729892h83.454443v17.066092c-12.506797 23.717434-27.333036 44.239951-44.785702 61.885904a350.326743 350.326743 0 0 0 69.208065 37.599978l-10.755845 18.794305a342.572529 342.572529 0 0 1-72.994213-42.807354c-24.126748 19.954026-52.039644 35.280536-84.022934 46.275147l-10.175984-18.510059c29.652478-9.25503 55.530177-22.853328 78.224328-40.772157a295.933548 295.933548 0 0 1-34.609718-34.120815 227.032468 227.032468 0 0 1-24.138117 26.025507l-13.075287-17.066092a171.479552 171.479552 0 0 0 51.164168-82.704036z m35.178208 95.142613c13.950763-13.598299 26.161945-29.220425 36.92916-46.559393h-69.208065c-2.035197 3.467794-4.070394 6.651342-5.809975 9.83489a285.677975 285.677975 0 0 0 38.08888 36.724503z"
        fill="#FFFFFF" p-id="10224"></path>
</svg>