<svg t="1726414761170" class="icon" viewBox="0 0 1024 1024" version="1.1" xmlns="http://www.w3.org/2000/svg" p-id="6385"
    width="200" height="200">
    <path d="M369.037537 928.783557a142.824665 83.314388 0 1 0 285.649329 0 142.824665 83.314388 0 1 0-285.649329 0Z"
        fill="#8E8E8E" p-id="6386"></path>
    <path
        d="M495.199324 0.423237C332.141166 7.56447 194.077323 140.867491 179.794857 307.496266c-9.521644 123.781376 47.608222 233.280286 140.444253 297.551385s159.487542 172.579803 159.487542 284.459123v14.282467c0 26.184522 19.043289 47.608222 33.325755 47.608221 16.662878 0 33.325755-21.4237 33.325755-47.608221v-14.282467c0-116.640143 73.792743-221.37823 166.628776-290.410151C792.750709 537.205935 845.119753 441.989492 845.119753 333.680788 845.119753 143.247902 688.012622-9.098407 495.199324 0.423237"
        fill="#5170EE" p-id="6387"></path>
    <path
        d="M653.496661 355.104487c-2.380411 24.99431599-5.951028 41.657194-10.71185001 48.798428-4.760822 7.141233-14.282466 11.902055-28.56493298 11.902055L559.470423 415.80497c-17.85308299 0-26.184522-9.521644-26.184521-26.184522l0-101.167471 84.504593 0 0-59.51027699-89.265416 0 0-20.23349401 110.689115 0L639.214194 309.876677l-83.314387 0 0 71.412332c0 8.33143899 4.760822 13.09226099 13.092261 13.092261l41.657194 0c8.33143899 0 14.282466-3.57061699 17.853083-9.521644 2.380411-5.95102799 3.570617-17.853083 4.760822-35.706166l20.233494 5.951027z m-253.51378-20.233494l20.23349401 2.380411c-1.190206 17.853083-2.380411 34.515961-4.76082201 49.988633 9.521644 17.85308299 20.233494 29.755138 32.13555 39.276783l0-111.879321-63.080894 0 0-20.233494 57.129866 0 0-45.22781-51.178838 0 0-20.233495 51.17883799 0 1e-8-41.657193L464.25398 187.285507l0 41.657193 49.988633 1e-8 0 20.23349499L464.25398 249.176195l0 45.22781 53.55925 0-1e-8 20.233494-47.60822199 0 0 44.037605 44.037605-1e-8 0 20.23349401-44.037605 0 0 58.320072c19.043289 4.760822 57.129866 8.331439 114.25973201 8.331438 34.515961 0 59.510277-1.190206 76.17315399-1.190205l-3.570616 21.4237-67.841716 0c-72.602538 0-117.830348-4.760822-135.683431-13.092261-15.47267199-7.141233-29.755138-20.233494-41.65719401-39.276783-4.760822 20.23349399-10.71185 40.46698799-19.04328899 58.320071l-16.662877-15.47267201c14.282466-35.706166 22.613905-76.173154 23.80411-121.40096499z"
        fill="#FFFFFF" p-id="6388"></path>
</svg>